
# Complete Session Log — Windows Replication
# AI-Based Usability Assessment for 4diac IDE

**Date:** March 23, 2026
**Machine:** Windows 11 Home (10.0.22631), x86_64
**Author:** Azat Vakhitov ""
**Purpose:** Replicate the full setup and testing on a Windows machine — verify both Phase 1 (video/screenshot assessment) and Phase 2 (agent interaction via Docker) work natively on Windows.

---

## Table of Contents

1. [Prerequisites & Environment Setup](#1-prerequisites--environment-setup)
2. [API Key Configuration](#2-api-key-configuration)
3. [Video Download](#3-video-download)
4. [Phase 1A: Gemini Video Assessment](#4-phase-1a-gemini-video-assessment)
5. [Phase 1B: Frame Extraction & Screenshot Assessment](#5-phase-1b-frame-extraction--screenshot-assessment)
6. [Phase 2A: Docker Environment Setup](#6-phase-2a-docker-environment-setup)
7. [Phase 2B: Script Fix for Windows](#7-phase-2b-script-fix-for-windows)
8. [Phase 2C: Agent Experiment — Task 1 (Orientation)](#8-phase-2c-agent-experiment--task-1-orientation)
9. [Phase 2D: Agent Experiment — Task 2 (Hierarchy Navigation)](#9-phase-2d-agent-experiment--task-2-hierarchy-navigation)
10. [Phase 2E: Agent Experiment — Task 3 (Library Usage)](#10-phase-2e-agent-experiment--task-3-library-usage)
11. [Phase 2F: Agent Experiment — Task 4 (Editing & Type Changes)](#11-phase-2f-agent-experiment--task-4-editing--type-changes)
12. [Phase 2G: Container Cleanup](#12-phase-2g-container-cleanup)
13. [Challenges & Solutions](#13-challenges--solutions)
14. [Windows vs macOS Differences](#14-windows-vs-macos-differences)
15. [Results Summary](#15-results-summary)
16. [How to Replicate (Quick Start)](#16-how-to-replicate-quick-start)
17. [Phase 3A: New Version Videos — Setup](#17-phase-3a-new-version-videos--setup)
18. [Phase 3B: Gemini Video Assessments (New Version)](#18-phase-3b-gemini-video-assessments-new-version)
19. [Phase 3C: Frame Extraction (New Version)](#19-phase-3c-frame-extraction-new-version)
20. [Phase 3D: Multi-Model Screenshot Assessments (New Version)](#20-phase-3d-multi-model-screenshot-assessments-new-version)
21. [Phase 3E: Old vs New Version Comparison](#21-phase-3e-old-vs-new-version-comparison)
22. [Phase 3 Results Summary](#22-phase-3-results-summary)
23. [Complete File Tree](#23-complete-file-tree)

---

## Pre-existing Software

Checked with these commands:

```bash
python --version
# Python 3.10.14

conda --version
# conda 24.5.0

docker --version
# Docker version 28.1.1, build 4eba377

ffmpeg -version | head -1
# ffmpeg version N-121271-g74115b017c-20250930

yt-dlp --version
# command not found (not installed yet)

conda env list
# No "4diac" environment exists yet
```

| Tool | Version | Status |
|------|---------|--------|
| OS | Windows 11 Home 10.0.22631 | -- |
| Conda | 24.5.0 | Pre-installed |
| Python (system) | 3.10.14 | Pre-installed (need 3.11+) |
| Docker | 28.1.1 | Pre-installed (not running) |
| ffmpeg | N-121271 (2025-09-30) | Pre-installed |
| yt-dlp | -- | Not installed |
| Git | Pre-installed | Pre-installed |

---

## 1. Prerequisites & Environment Setup

### 1.1 Create Conda Environment

```bash
conda create -n 4diac python=3.11 -y
```

**Output:** Python 3.11.15 installed at `C:\Users\you\anaconda3\envs\4diac`

### 1.2 Install Python Dependencies

```bash
conda run -n 4diac pip install google-genai openai anthropic python-dotenv Pillow yt-dlp
```

**Output:**
```
Successfully installed Pillow-12.1.1 annotated-types-0.7.0 anthropic-0.86.0 anyio-4.12.1
certifi-2026.2.25 cffi-2.0.0 charset_normalizer-3.4.6 colorama-0.4.6 cryptography-46.0.5
distro-1.9.0 docstring-parser-0.17.0 google-auth-2.49.1 google-genai-1.68.0 h11-0.16.0
httpcore-1.0.9 httpx-0.28.1 idna-3.11 jiter-0.13.0 openai-2.29.0 pyasn1-0.6.3
pyasn1-modules-0.4.2 pycparser-3.0 pydantic-2.12.5 pydantic-core-2.41.5 python-dotenv-1.2.2
requests-2.32.5 sniffio-1.3.1 tenacity-9.1.4 tqdm-4.67.3 typing-extensions-4.15.0
typing-inspection-0.4.2 urllib3-2.6.3 websockets-16.0 yt-dlp-2026.3.17
```

### 1.3 Verify All Imports

```bash
conda run -n 4diac python -c "from google import genai; print('google-genai OK'); import openai; print('openai OK'); import anthropic; print('anthropic OK'); from dotenv import load_dotenv; print('python-dotenv OK'); from PIL import Image; print('Pillow OK'); import yt_dlp; print('yt-dlp OK'); import sys; print(f'Python {sys.version}')"
```

**Output:**
```
google-genai OK
openai OK
anthropic OK
python-dotenv OK
Pillow OK
yt-dlp OK
Python 3.11.15 | packaged by Anaconda, Inc. | (main, Mar 11 2026, 17:12:15) [MSC v.1942 64 bit (AMD64)]
```

### Installed Package Versions

| Package | Version |
|---------|---------|
| google-genai | 1.68.0 |
| openai | 2.29.0 |
| anthropic | 0.86.0 |
| python-dotenv | 1.2.2 |
| Pillow | 12.1.1 |
| yt-dlp | 2026.3.17 |
| Python | 3.11.15 (MSC v.1942 64 bit AMD64) |

**No challenges** — all packages installed cleanly on first attempt.

---

## 2. API Key Configuration

### 2.1 Create .env File

Created file `exploration/.env` with contents:

```env
GOOGLE_API_KEY=<your-google-api-key>
OPENAI_API_KEY=<your-openai-api-key>
ANTHROPIC_API_KEY=<your-anthropic-api-key>
```

### 2.2 Verify .gitignore

```bash
grep "exploration/.env" .gitignore
```

**Output:** `exploration/.env` — confirmed, keys will NOT be committed.

**Key sources:**
- Google Gemini: https://aistudio.google.com/apikey
- OpenAI: https://platform.openai.com/api-keys
- Anthropic: https://console.anthropic.com/settings/keys

**No challenges.**

---

## 3. Video Download

### 3.1 Create Videos Directory

```bash
mkdir -p videos
```

### 3.2 Download Task Demo Video

```bash
conda run -n 4diac yt-dlp -o "videos/task_demo.%(ext)s" "https://youtu.be/xishphcgYmc"
```

**Output:**
```
WARNING: [youtube] No supported JavaScript runtime could be found. Only deno is enabled by default...
[youtube] Extracting URL: https://youtu.be/xishphcgYmc
[youtube] xishphcgYmc: Downloading webpage
[download] 100% of 21.52MiB in 00:00:05 at 4.24MiB/s
[download] 100% of 7.93MiB in 00:00:00 at 13.96MiB/s
[Merger] Merging formats into "videos/task_demo.mkv"
```

### 3.3 Download Intro V1 Video

```bash
conda run -n 4diac yt-dlp -o "videos/intro_v1.%(ext)s" "https://youtu.be/K9iItQBC-ac"
```

**Output:**
```
[download] 100% of 11.82MiB in 00:00:01 at 6.17MiB/s
[download] 100% of 4.93MiB in 00:00:00 at 7.22MiB/s
[Merger] Merging formats into "videos/intro_v1.mkv"
```

### 3.4 Download Intro V2 Video

```bash
conda run -n 4diac yt-dlp -o "videos/intro_v2.%(ext)s" "https://youtu.be/by02Xu2yrPE"
```

**Output:**
```
[download] 100% of 26.40MiB in 00:00:05 at 5.23MiB/s
[download] 100% of 4.35MiB in 00:00:01 at 3.92MiB/s
[Merger] Merging formats into "videos/intro_v2.webm"
```

### 3.5 Verify Downloads

```bash
ls -lh videos/
```

**Output:**
```
total 77M
-rw-r--r-- 1 you 197609 17M Mar 23 04:31 intro_v1.mkv
-rw-r--r-- 1 you 197609 31M Mar 23 04:31 intro_v2.webm
-rw-r--r-- 1 you 197609 30M Mar 23 04:30 task_demo.mkv
```

**Challenge:** yt-dlp warning "No supported JavaScript runtime could be found." Non-blocking — downloads succeeded without deno.

---

## 4. Phase 1A: Gemini Video Assessment

### 4.1 Run Gemini Assessment (task_demo, blind prompt)

```bash
cd exploration
conda run -n 4diac python gemini_video_assess.py td blind
```

**Output:**
```
Starting Gemini video assessment
Video: td
Prompt level: blind
Model: gemini-2.5-flash

Uploading task_demo.mkv...
Upload complete. Waiting for processing...
  State: PROCESSING
  State: PROCESSING
  State: PROCESSING
  State: PROCESSING
  State: PROCESSING
  State: ACTIVE
Video ready: https://generativelanguage.googleapis.com/v1beta/files/3cj6gw16fj04

============================================================
Running assessment: blind
============================================================
Sending to gemini-2.5-flash...

Saved to: C:\Users\you\Desktop\ai-user\4diac\exploration\outputs\gemini_video\td_blind.md

Response preview:
Here's an assessment of the IDE's usability based on your video:

### Usability Assessment of the IDE

**1. Observations about the User Interface:**

The IDE presents a layout common to many integrated development environments...

All results saved to: C:\Users\you\Desktop\ai-user\4diac\exploration\outputs\gemini_video\td_all_results.json
Uploaded video cleaned up.

============================================================
DONE — 1 successful assessments
============================================================
```

### 4.2 Output Files

- `exploration/outputs/gemini_video/td_blind.md` (assessment report)
- `exploration/outputs/gemini_video/td_all_results.json` (structured JSON)

### 4.3 Key Findings (Blind Prompt)

Gemini identified from the video alone:
1. **Major:** Connection loss during type switching/refactoring
2. **Bug:** Misleading error message ("Param2 has already an input connection" when Param2 is unconnected)
3. **Efficiency:** Manual reconnection burden after type changes
4. **Lack of connection intelligence** — no smart pin matching
5. **Suboptimal parameter creation flow**
6. **Limited visual feedback** on connection status

Also identified strengths: hierarchical management, follow-connection feature, auto-layout, type system for reusability.

**No challenges** — API key worked, video upload and processing went smoothly.

---

## 5. Phase 1B: Frame Extraction & Screenshot Assessment

### 5.1 Extract Frames (1 per 10 seconds)

```bash
cd exploration
mkdir -p frames/td frames/td_3s
ffmpeg -i ../videos/task_demo.mkv -vf "fps=1/10" -q:v 2 frames/td/frame_%04d.jpg
```

**Output:**
```
Input #0, matroska,webm, from '../videos/task_demo.mkv':
  Duration: 00:11:01.73
  Stream #0:0: Video: h264 (High), yuv420p, 1920x1080, 30 fps
frame=   66 fps= 13 q=2.0 Lsize=N/A time=00:11:00.00 bitrate=N/A speed= 129x
```

Result: **66 frames** extracted. Took ~5 seconds.

Minor warning: `[opus] Error parsing Opus packet header` — non-blocking, audio only.

### 5.2 Verify Frames

```bash
ls frames/td/ | wc -l
# 66

ls frames/td/ | head -5
# frame_0001.jpg
# frame_0002.jpg
# frame_0003.jpg
# frame_0004.jpg
# frame_0005.jpg
```

### 5.3 Run Multi-Model Screenshot Assessment

```bash
conda run -n 4diac python assess_screenshots.py blind all 6frames
```

**Output:**
```
Screenshot assessment — prompt: blind, models: all, frames: 6frames

Using 6 frames from task_demo.mkv, prompt: blind
Sending to GPT-4o...
GPT-4o saved to: C:\Users\you\Desktop\ai-user\4diac\exploration\outputs\screenshots\gpt4o_blind_6frames.md
Preview: Based on the screenshots provided, here's an assessment of the usability...
Sending to Gemini (screenshots)...
Gemini screenshots saved to: C:\Users\you\Desktop\ai-user\4diac\exploration\outputs\screenshots\gemini_ss_blind_6frames.md
Preview: The video showcases an Integrated Development Environment (IDE)...
Sending to Claude...
Claude saved to: C:\Users\you\Desktop\ai-user\4diac\exploration\outputs\screenshots\claude_blind_6frames.md
Preview: Based on my analysis of this industrial automation IDE interface...

All results: C:\Users\you\Desktop\ai-user\4diac\exploration\outputs\screenshots\all_blind_6frames.json
```

### 5.4 Output Files

| Model | Output File | Status |
|-------|-------------|--------|
| GPT-4o | `outputs/screenshots/gpt4o_blind_6frames.md` | Success |
| Gemini 2.5 Flash | `outputs/screenshots/gemini_ss_blind_6frames.md` | Success |
| Claude Sonnet 4 | `outputs/screenshots/claude_blind_6frames.md` | Success |
| Combined JSON | `outputs/screenshots/all_blind_6frames.json` | Success |

**No challenges** — all three API keys worked, all models responded successfully.

---

## 6. Phase 2A: Docker Environment Setup

### 6.1 Start Docker Desktop

Docker was installed but the daemon was not running.

```bash
docker info 2>&1 | grep "Server:"
# Server:
# error during connect: ...open //./pipe/dockerDesktopLinuxEngine: The system cannot find the file specified.
```

Start Docker Desktop:

```bash
"/c/Program Files/Docker/Docker/Docker Desktop.exe" &
```

Wait for daemon:

```bash
# Poll until ready
for i in $(seq 1 30); do
  docker info >/dev/null 2>&1 && echo "Docker is ready!" && break || echo "Attempt $i: not ready yet..."
  sleep 5
done
```

**Output:** `Docker is ready!` (first attempt after startup)

### 6.2 Build and Start Container

```bash
cd agent_interaction
docker compose up --build -d
```

**Output (summary):**
```
#5 [4diac-ide 1/6] FROM docker.io/library/ubuntu:22.04@sha256:ce4a593b...
#6 [4diac-ide 2/6] RUN apt-get update && apt-get install -y ...
#7 [4diac-ide 3/6] RUN wget -q "https://www.eclipse.org/downloads/download.php?..."
#10 [4diac-ide 6/6] RUN chmod +x /start.sh

Container agent_interaction-4diac-ide-1  Created
Container agent_interaction-4diac-ide-1  Started
```

Build time: ~2 minutes.

### 6.3 Verify Container Running

```bash
docker ps
```

**Output:**
```
CONTAINER ID   IMAGE                         STATUS          PORTS
5631fabfa849   agent_interaction-4diac-ide    Up 12 seconds   0.0.0.0:5900->5900/tcp, 0.0.0.0:6080->6080/tcp
```

### 6.4 Verify All Processes Inside Container

```bash
docker exec agent_interaction-4diac-ide-1 ps aux | grep -E "4diac|java|Xvfb|vnc|fluxbox"
```

**Output:**
```
root   7  Xvfb :1 -screen 0 1920x1080x24
root  11  fluxbox
root  13  x11vnc -display :1 -forever -nopw -shared -rfbport 5900
root  23  /usr/bin/python3 /usr/bin/websockify --web /usr/share/novnc/ 6080 localhost:5900
root  25  /opt/4diac/4diac-ide -data /root/workspace
root  38  .../jre/bin/java -Dosgi.requiredJavaVersion=21 ... -jar .../org.eclipse.equinox.launcher_1.7.100.jar
```

All 6 processes confirmed: Xvfb, fluxbox, x11vnc, websockify (noVNC), 4diac-ide, Java.

### 6.5 Install Interaction Tools (xdotool + scrot)

```bash
docker exec agent_interaction-4diac-ide-1 bash -c "apt-get update -qq && apt-get install -y -qq xdotool scrot"
```

**Output:**
```
Setting up scrot (1.7-1) ...
Setting up xdotool (1:3.20160805.1-4) ...
```

### 6.6 Take Test Screenshot

```bash
docker exec agent_interaction-4diac-ide-1 bash -c "DISPLAY=:1 scrot /tmp/screen.png"
docker cp agent_interaction-4diac-ide-1:/tmp/screen.png screen_check.png
```

**Result:** Screenshot shows 4diac IDE Welcome screen with "Updates Available" dialog. GUI is fully functional.

### 6.7 Visual Verification via noVNC

Open in browser: `http://localhost:6080/vnc.html`

**Result:** 4diac IDE visible and responsive through web browser.

**Windows advantage confirmed:** No QEMU emulation needed — Docker runs natively on x86_64.

---

## 7. Phase 2B: Script Fix for Windows

### 7.1 Problem: Windows cp1252 Encoding

Windows uses `cp1252` as the default encoding. Claude's responses contain Unicode characters (`≈`, `►`, `—`, etc.) that crash the script:

```
UnicodeEncodeError: 'charmap' codec can't encode character '\u2248' in position 4844
```

This affects both `print()` calls and `open()` file writes.

### 7.2 Fix Applied to `agent_interaction/claude_computer_use.py`

**Change 1:** Added UTF-8 stdout/stderr wrapper at top of file (after line 5):

```python
import sys
import io

# Fix Windows cp1252 encoding issues — force UTF-8 for stdout/stderr
if sys.platform == "win32":
    sys.stdout = io.TextIOWrapper(sys.stdout.buffer, encoding="utf-8", errors="replace")
    sys.stderr = io.TextIOWrapper(sys.stderr.buffer, encoding="utf-8", errors="replace")
```

**Change 2:** Added `encoding="utf-8"` to JSON file write (line ~305):

```python
# Before:
with open(json_path, "w") as f:
    json.dump(result, f, indent=2)

# After:
with open(json_path, "w", encoding="utf-8") as f:
    json.dump(result, f, indent=2, ensure_ascii=False)
```

**Change 3:** Added `encoding="utf-8"` to markdown report file write (line ~310):

```python
# Before:
with open(md_path, "w") as f:

# After:
with open(md_path, "w", encoding="utf-8") as f:
```

### 7.3 Problem: `conda run` Multiline Bug

`conda run -n 4diac python -c "..."` fails on Windows when the Python code contains newlines:

```
AssertionError: Support for scripts where arguments contain newlines not implemented.
```

**Solution:** Use the direct Python executable path instead:

```bash
# Instead of:
conda run -n 4diac python script.py

# Use:
C:/Users/you/anaconda3/envs/4diac/python.exe script.py
```

For single-line commands, `conda run -n 4diac python -c "..."` still works fine.

---

## 8. Phase 2C: Agent Experiment — Task 1 (Orientation)

### 8.1 Command

```bash
cd c:/Users/you/Desktop/ai-user/4diac
C:/Users/you/anaconda3/envs/4diac/python.exe agent_interaction/claude_computer_use.py task1_orientation
```

### 8.2 Configuration

- **Model:** claude-sonnet-4-6
- **API:** Computer Use (`computer-use-2025-11-24`)
- **Tool:** `computer_20251124` (display 1920x1080)
- **Max steps:** 30
- **Starting state:** IDE on Welcome/Tutorials page with "Updates Available" dialog

### 8.3 Full Console Output

```
Ensuring xdotool is installed in container...

============================================================
Starting: Task 1: Orientation
============================================================

Taking initial screenshot...

--- Step 1/30 ---
Claude: I'll start by taking a screenshot to see the current state of the IDE...
  Action: screenshot

--- Step 2/30 ---
Claude: I can see the IDE is open with a Welcome tab showing Tutorials. There's also an
        "Updates Available" popup. Let me first close the Updates popup...
  Action: left_click [744, 499]

--- Step 3/30 ---
  Action: screenshot

--- Step 4/30 ---
Claude: Interesting! Clicking the X on the "Updates Available" popup accidentally opened
        the Help window instead. This is a usability issue...
  Action: left_click [1201, 8]

--- Step 5/30 ---
  Action: screenshot

--- Step 6/30 ---
Claude: The Help window is still open. I need to close it using the X button...
  Action: left_click [1201, 8]

--- Step 7/30 ---
  Action: screenshot

--- Step 8/30 ---
Claude: The Help window is still open. Let me try clicking more precisely...
  Action: left_click [1202, 9]

--- Step 9/30 ---
  Action: screenshot

--- Step 10/30 ---
Claude: Let me try using Alt+F4 to close this window...
  Action: key alt+F4

--- Step 11/30 ---
  Action: screenshot

--- Step 12/30 ---
Claude: The Help window closed. Now let me close the Welcome tab...
  USABILITY ISSUE #1: Clicking Updates dialog X opened Help window
  Action: left_click [101, 100]

--- Step 13/30 ---
  Action: screenshot

--- Step 14/30 ---
Claude: Welcome tab seems to have disappeared but content still showing. Tooltip says
        "Set zoom level to fit the page"...
  USABILITY ISSUE #2: Welcome tab close button intercepted by zoom toolbar
  Action: left_click [733, 139]

--- Step 15/30 ---
  Action: screenshot

--- Step 16/30 ---
Claude: Welcome tab is back. Tab header inconsistently visible...
  Action: mouse_move [67, 100]

--- Step 17/30 ---
  Action: screenshot

--- Step 18/30 ---
Claude: Tab header disappeared again. Clicking tutorial content...
  USABILITY ISSUE #3: Tab header inconsistently visible
  Action: left_click [400, 340]

--- Step 19/30 ---
  Action: screenshot

--- Step 20/30 ---
Claude: Help window opened again! "Advanced features" link opened Help with broken topic.
  USABILITY ISSUE #4: Tutorial link opens Help with "Topic not found"
  Action: key alt+F4

--- Step 21/30 ---
  Action: screenshot

--- Step 22/30 ---
Claude: Back at Welcome tab. Trying to click X again...
  Action: left_click [101, 100]

--- Step 23/30 ---
  Action: screenshot

--- Step 24/30 ---
Claude: Tab header gone but content remains...
  USABILITY ISSUE #5: Welcome content persists after tab header closes
  Action: left_click [733, 139]

--- Step 25-30 ---
  [Agent continued trying Welcome tab navigation, mouse_move, left_click attempts]

Results saved to:
  agent_interaction/outputs/task1_orientation_results.json
  agent_interaction/outputs/task1_orientation_report.md
```

### 8.4 Output Files

| File | Size | Description |
|------|------|-------------|
| `outputs/task1_orientation_report.md` | 6,876 bytes | Agent's usability report |
| `outputs/task1_orientation_results.json` | 11,128 bytes | Full results with action log |
| `outputs/task1_orientation_step01.png` | 178 KB | Initial state screenshot |
| `outputs/task1_orientation_step02.png` | 161 KB | After clicking Updates X |
| `outputs/task1_orientation_step03.png` through `step30.png` | ~160 KB each | Step-by-step screenshots |

**Total:** 30 screenshots + 1 report + 1 JSON

### 8.5 Action Log

| Step | Action | Coordinate | Text | Result |
|------|--------|------------|------|--------|
| 1 | screenshot | - | - | Initial state captured |
| 2 | left_click | [744, 499] | - | Dismissed Updates popup → Help opened |
| 3 | screenshot | - | - | Help window visible |
| 4 | left_click | [1201, 8] | - | Tried to close Help window |
| 5 | screenshot | - | - | Help still open |
| 6 | left_click | [1201, 8] | - | Tried again |
| 7 | screenshot | - | - | Still open |
| 8 | left_click | [1202, 9] | - | Tried again |
| 9 | screenshot | - | - | Still open |
| 10 | key | - | alt+F4 | **Help window closed** |
| 11 | screenshot | - | - | Back to Welcome tab |
| 12 | left_click | [101, 100] | - | Tried to close Welcome X |
| 13 | screenshot | - | - | Tooltip: "Set zoom level to fit the page" |
| 14 | left_click | [733, 139] | - | Clicked Workbench button |
| 15 | screenshot | - | - | Welcome tab back |
| 16 | mouse_move | [67, 100] | - | Hover over tab area |
| 17 | screenshot | - | - | Tab header disappeared |
| 18 | left_click | [400, 340] | - | Clicked tutorial link |
| 19 | screenshot | - | - | Help window opened again |
| 20 | key | - | alt+F4 | Closed Help window |
| 21 | screenshot | - | - | Back to Welcome |
| 22 | left_click | [101, 100] | - | Tried Welcome X again |
| 23 | screenshot | - | - | Tab header gone, content remains |
| 24 | left_click | [733, 139] | - | Workbench button |
| 25 | screenshot | - | - | Welcome still showing |
| 26 | mouse_move | [67, 100] | - | Hover tab area |
| 27 | screenshot | - | - | Tab partially visible |
| 28 | mouse_move | [14, 100] | - | Left sidebar icons |
| 29 | screenshot | - | - | Zoom Out tooltip |
| 30 | left_click | [675, 139] | - | Clicked navigation button |

### 8.6 Usability Issues Found

| # | Issue | Severity | Description |
|---|-------|----------|-------------|
| 1 | Updates dialog X triggers Help | Major | Clicking the close button on the "Updates Available" notification opened a Help window instead of closing the notification |
| 2 | Welcome tab X intercepted by zoom toolbar | Major | Clicking at the tab close button position consistently hit the "Set zoom level to fit the page" toolbar button instead |
| 3 | Tab header inconsistently visible | Major | Welcome tab header appeared and disappeared when hovering, creating confusion about whether the tab was open or closed |
| 4 | Tutorial link → broken Help | Minor | Clicking "Advanced features" in Tutorials page opened Help with "Topic not found" |
| 5 | Welcome content persists after tab close | Minor | After the tab header was removed, the Tutorials content remained visible |

---

## 9. Phase 2D: Agent Experiment — Task 2 (Hierarchy Navigation)

### 9.1 Command

```bash
cd c:/Users/you/Desktop/ai-user/4diac
C:/Users/you/anaconda3/envs/4diac/python.exe agent_interaction/claude_computer_use.py task2_hierarchy
```

### 9.2 Challenge: Encoding Crash

Task 2 completed all 30 steps but crashed when saving the report:

```
UnicodeEncodeError: 'charmap' codec can't encode character '\u2248' in position 4844
```

The `≈` character in Claude's response ("1920/770 ≈ 2.49") caused the crash. JSON was saved before the crash but the report file was incomplete (172 bytes).

### 9.3 Fix: Regenerate Report from JSON

```bash
cd c:/Users/you/Desktop/ai-user/4diac
C:/Users/you/anaconda3/envs/4diac/python.exe -c "
import json
from pathlib import Path

with open('agent_interaction/outputs/task2_hierarchy_results.json', 'r') as f:
    result = json.load(f)

md_path = Path('agent_interaction/outputs/task2_hierarchy_report.md')
with open(md_path, 'w', encoding='utf-8') as f:
    f.write(f'# {result[\"task\"]} - Claude Computer Use Assessment\n\n')
    f.write(f'**Date:** {result[\"timestamp\"][:16].replace(\"T\",\" \")}\n')
    f.write(f'**Model:** claude-sonnet-4-6\n')
    f.write(f'**Steps taken:** {result[\"total_steps\"]}/{result[\"max_steps\"]}\n\n')
    f.write('## Agent Report\n\n')
    f.write(result['final_report'])
    f.write('\n\n## Action Log\n\n')
    f.write('| Step | Action | Coordinate | Text |\n')
    f.write('|------|--------|------------|------|\n')
    for s in result['steps']:
        text_val = (s.get('text') or '')[:50]
        f.write(f'| {s[\"step\"]} | {s[\"action\"]} | {s.get(\"coordinate\", \"\")} | {text_val} |\n')

print(f'Report regenerated: {md_path.stat().st_size} bytes')
"
```

**Output:** `Report regenerated: 8623 bytes`

### 9.4 Full Console Output (Summary)

```
--- Step 1/30 ---  screenshot
--- Step 2/30 ---  left_click [733, 138]     # Tried Workbench button
--- Step 3/30 ---  screenshot
--- Step 4/30 ---  left_click [101, 101]     # Tried Welcome X
--- Step 5/30 ---  screenshot
--- Step 6/30 ---  left_click [365, 26]      # Tried Window menu → got Project menu
--- Step 7/30 ---  screenshot
--- Step 8/30 ---  key Escape
--- Step 9/30 ---  left_click [365, 26]      # Tried Window again → Project again
--- Step 10-16 --- [Repeated Escape + left_click [365, 26] cycle — always Project menu]
--- Step 17-20 --- [Tried mouse_move, different x positions — still Project menu]
--- Step 21-25 --- [More attempts, cursor_position check: x:366, y:26]
--- Step 26/30 ---  cursor_position           # Confirmed cursor at x:366, y:26
--- Step 27/30 ---  key alt+F10               # Maximized window
--- Step 28/30 ---  screenshot
--- Step 29/30 ---  left_click [364, 26]      # Tried Window in maximized — still Project
--- Step 30/30 ---  screenshot
```

### 9.5 Action Log

| Step | Action | Coordinate | Text |
|------|--------|------------|------|
| 1 | screenshot | - | - |
| 2 | left_click | [733, 138] | - |
| 3 | screenshot | - | - |
| 4 | left_click | [101, 101] | - |
| 5 | screenshot | - | - |
| 6 | left_click | [365, 26] | - |
| 7 | screenshot | - | - |
| 8 | key | - | Escape |
| 9 | left_click | [365, 26] | - |
| 10 | screenshot | - | - |
| 11 | key | - | Escape |
| 12 | left_click | [365, 26] | - |
| 13 | screenshot | - | - |
| 14 | key | - | Escape |
| 15 | left_click | [365, 26] | - |
| 16 | screenshot | - | - |
| 17 | key | - | Escape |
| 18 | mouse_move | [365, 26] | - |
| 19 | screenshot | - | - |
| 20 | left_click | [366, 26] | - |
| 21 | screenshot | - | - |
| 22 | left_click | [366, 26] | - |
| 23 | screenshot | - | - |
| 24 | mouse_move | [366, 26] | - |
| 25 | screenshot | - | - |
| 26 | cursor_position | - | - |
| 27 | key | - | alt+F10 |
| 28 | screenshot | - | - |
| 29 | left_click | [364, 26] | - |
| 30 | screenshot | - | - |

### 9.6 Output Files

| File | Size |
|------|------|
| `outputs/task2_hierarchy_report.md` | 8,623 bytes |
| `outputs/task2_hierarchy_results.json` | 12,916 bytes |
| `outputs/task2_hierarchy_step01-30.png` | 30 screenshots (~160 KB each) |

### 9.7 Usability Issues Found

| # | Issue | Severity | Description |
|---|-------|----------|-------------|
| 1 | Menu items tightly spaced | Minor | Agent clicked at x=365 (calculated "Window" position) but consistently got "Project" menu |
| 2 | No keyboard shortcut for System Explorer | Major | No way to open System Explorer without going through Window menu |
| 3 | Welcome tab blocks workbench access | Major | Same blocking issue as Task 1 |

### 9.8 Analysis

The agent calculated menu positions from visual analysis: Project(~285), Run(~323), Window(~365), Help(~409). But clicking x=365 always opened "Project" menu. This is because the Computer Use API receives downscaled screenshots (770x580) but actions execute in full display resolution (1920x1080). The coordinate mismatch causes systematic misclicks.

---

## 10. Phase 2E: Agent Experiment — Task 3 (Library Usage)

### 10.1 Command

```bash
cd c:/Users/you/Desktop/ai-user/4diac
C:/Users/you/anaconda3/envs/4diac/python.exe agent_interaction/claude_computer_use.py task3_library
```

### 10.2 Full Console Output (Summary)

```
--- Step 1/30 ---  screenshot
--- Step 2/30 ---  key Escape                 # Close leftover menu
--- Step 3/30 ---  screenshot
--- Step 4/30 ---  left_click [364, 25]       # Tried Window menu → got Project
--- Step 5/30 ---  screenshot
--- Step 6-12 ---  [Repeated Escape + left_click [364, 25] — always Project]
--- Step 13/30 ---  mouse_move [364, 25]
--- Step 14/30 ---  screenshot
--- Step 15-24 --- [More attempts at x=364, tried different approaches]
--- Step 25/30 ---  key alt+F10               # Tried to maximize window
--- Step 26/30 ---  screenshot
--- Step 27-28 --- [left_click [364, 25] — still Project in maximized window]
--- Step 29/30 ---  key Escape
--- Step 30/30 ---  key F10                    # Tried F10 menu bar activation
```

### 10.3 Action Log

| Step | Action | Coordinate | Text |
|------|--------|------------|------|
| 1 | screenshot | - | - |
| 2 | key | - | Escape |
| 3 | screenshot | - | - |
| 4 | left_click | [364, 25] | - |
| 5 | screenshot | - | - |
| 6 | key | - | Escape |
| 7 | left_click | [364, 25] | - |
| 8 | screenshot | - | - |
| 9 | key | - | Escape |
| 10 | left_click | [364, 25] | - |
| 11 | screenshot | - | - |
| 12 | key | - | Escape |
| 13 | mouse_move | [364, 25] | - |
| 14 | screenshot | - | - |
| 15 | left_click | [364, 25] | - |
| 16 | screenshot | - | - |
| 17 | key | - | Escape |
| 18 | mouse_move | [300, 25] | - |
| 19 | screenshot | - | - |
| 20 | left_click | [364, 25] | - |
| 21 | screenshot | - | - |
| 22 | key | - | Escape |
| 23 | left_click | [364, 25] | - |
| 24 | key | - | Escape |
| 25 | key | - | alt+F10 |
| 26 | screenshot | - | - |
| 27 | left_click | [364, 25] | - |
| 28 | screenshot | - | - |
| 29 | key | - | Escape |
| 30 | key | - | F10 |

### 10.4 Output Files

| File | Size |
|------|------|
| `outputs/task3_library_report.md` | 8,797 bytes |
| `outputs/task3_library_results.json` | 13,001 bytes |
| `outputs/task3_library_step01-30.png` | 30 screenshots |

### 10.5 Usability Issues Found

| # | Issue | Severity | Description |
|---|-------|----------|-------------|
| 1 | Type Library not discoverable without Window menu | Major | No visible palette on startup, requires Window > Show View |
| 2 | Menu click detection mismatch | Major | Coordinate calibration issue (same as Task 2) |
| 3 | No Quick Access search for views | Minor | Agent didn't know to try Ctrl+3 Quick Access |

---

## 11. Phase 2F: Agent Experiment — Task 4 (Editing & Type Changes)

### 11.1 First Run (Crashed)

```bash
cd c:/Users/you/Desktop/ai-user/4diac
C:/Users/you/anaconda3/envs/4diac/python.exe agent_interaction/claude_computer_use.py task4_editing
```

**Crash at step 22:**
```
UnicodeEncodeError: 'charmap' codec can't encode character '\u25ba' in position 92
```

The `►` character in Claude's response caused a `print()` crash. 21 step screenshots were saved but no JSON/report.

### 11.2 Apply Encoding Fix

Applied the UTF-8 fix described in Section 7.2 to `claude_computer_use.py`.

### 11.3 Second Run (Successful)

```bash
cd c:/Users/you/Desktop/ai-user/4diac
C:/Users/you/anaconda3/envs/4diac/python.exe agent_interaction/claude_computer_use.py task4_editing
```

### 11.4 Full Console Output (Summary)

```
--- Step 1/30 ---  screenshot
--- Step 2/30 ---  key Escape                 # Close leftover menu
--- Step 3/30 ---  screenshot
--- Step 4/30 ---  left_click [733, 137]      # Tried Workbench button
--- Step 5/30 ---  screenshot
--- Step 6/30 ---  left_click [101, 101]      # Tried Welcome X
--- Step 7/30 ---  screenshot
--- Step 8/30 ---  left_click [733, 137]      # Workbench again
--- Step 9/30 ---  screenshot
--- Step 10/30 --- left_click [15, 26]        # Opened File menu
--- Step 11/30 --- screenshot
--- Step 12/30 --- left_click [33, 45]        # Clicked "New" — submenu didn't appear
--- Step 13/30 --- screenshot
--- Step 14/30 --- key ctrl+n                 # *** BREAKTHROUGH: Ctrl+N worked! ***
--- Step 15/30 --- screenshot                 # New Wizard dialog visible!
--- Step 16/30 --- left_click [218, 201]      # Clicked "4diac IDE" in tree
--- Step 17/30 --- screenshot
--- Step 18/30 --- left_click [173, 201]      # Tried expand arrow
--- Step 19/30 --- screenshot
--- Step 20/30 --- double_click [218, 201]    # Tried double-click
--- Step 21/30 --- screenshot
--- Step 22/30 --- left_click [172, 201]      # Tried expand arrow again
--- Step 23/30 --- screenshot
--- Step 24/30 --- left_click [218, 201]      # Tried selecting "4diac IDE"
--- Step 25/30 --- left_click [389, 402]      # Clicked "Next >"
--- Step 26/30 --- screenshot
--- Step 27/30 --- left_click [218, 201]      # Tried "4diac IDE" again
--- Step 28/30 --- screenshot
--- Step 29/30 --- left_click [174, 201]      # Tried expand arrow
--- Step 30/30 --- screenshot
```

### 11.5 Action Log

| Step | Action | Coordinate | Text |
|------|--------|------------|------|
| 1 | screenshot | - | - |
| 2 | key | - | Escape |
| 3 | screenshot | - | - |
| 4 | left_click | [733, 137] | - |
| 5 | screenshot | - | - |
| 6 | left_click | [101, 101] | - |
| 7 | screenshot | - | - |
| 8 | left_click | [733, 137] | - |
| 9 | screenshot | - | - |
| 10 | left_click | [15, 26] | - |
| 11 | screenshot | - | - |
| 12 | left_click | [33, 45] | - |
| 13 | screenshot | - | - |
| 14 | key | - | **ctrl+n** |
| 15 | screenshot | - | - |
| 16 | left_click | [218, 201] | - |
| 17 | screenshot | - | - |
| 18 | left_click | [173, 201] | - |
| 19 | screenshot | - | - |
| 20 | double_click | [218, 201] | - |
| 21 | screenshot | - | - |
| 22 | left_click | [172, 201] | - |
| 23 | screenshot | - | - |
| 24 | left_click | [218, 201] | - |
| 25 | left_click | [389, 402] | - |
| 26 | screenshot | - | - |
| 27 | left_click | [218, 201] | - |
| 28 | screenshot | - | - |
| 29 | left_click | [174, 201] | - |
| 30 | screenshot | - | - |

### 11.6 Output Files

| File | Size |
|------|------|
| `outputs/task4_editing_report.md` | 3,423 bytes |
| `outputs/task4_editing_results.json` | 7,671 bytes |
| `outputs/task4_editing_step01-30.png` | 30 screenshots |

### 11.7 Key Finding: SWT Dialogs Work on Native x86_64

At **Step 14**, the agent pressed `Ctrl+N` and the **New Wizard dialog appeared**. This is a critical finding:
- On macOS (QEMU): Ctrl+N did nothing, SWT dialogs never rendered
- On Windows (native): Ctrl+N works, New Wizard renders correctly

This proves the macOS issues were QEMU emulation artifacts, not IDE bugs.

### 11.8 Usability Issues Found

| # | Issue | Severity | Description |
|---|-------|----------|-------------|
| 1 | New Wizard expand arrows too small | Minor | Agent couldn't click the tree expand arrow for "4diac IDE" |
| 2 | File > New submenu inconsistent | Minor | Click on "New" didn't show submenu, only hover or keyboard works |
| 3 | "General" auto-selected in New Wizard | Minor | Wrong category selected by default |
| 4 | No guided project creation from Welcome | Major | Welcome screen doesn't offer a clear "Create Example Project" flow |

---

## 12. Phase 2G: Container Cleanup

### 12.1 Stop and Remove Container

```bash
cd agent_interaction
docker compose down
```

**Output:**
```
Container agent_interaction-4diac-ide-1  Stopping
Container agent_interaction-4diac-ide-1  Stopped
Container agent_interaction-4diac-ide-1  Removing
Container agent_interaction-4diac-ide-1  Removed
Network agent_interaction_default  Removing
Network agent_interaction_default  Removed
```

---

## 13. Challenges & Solutions

| # | Challenge | When | Solution |
|---|-----------|------|----------|
| 1 | Docker Desktop daemon not running | Section 6.1 | Started manually: `"/c/Program Files/Docker/Docker/Docker Desktop.exe" &` |
| 2 | yt-dlp "No JS runtime" warning | Section 3 | Non-blocking — downloads work without deno |
| 3 | `conda run -n 4diac` fails with multiline Python | Section 7.3 | Used direct Python path: `C:/Users/you/anaconda3/envs/4diac/python.exe` |
| 4 | ffmpeg `[opus] Error parsing Opus packet header` | Section 5.1 | Non-blocking — only affects audio stream |
| 5 | `UnicodeEncodeError: cp1252` on `print()` | Section 11.1 | Added `sys.stdout = io.TextIOWrapper(sys.stdout.buffer, encoding="utf-8")` |
| 6 | `UnicodeEncodeError: cp1252` on `open()` | Section 9.2 | Added `encoding="utf-8"` to all `open()` calls |
| 7 | Task 2 report empty (172 bytes) after crash | Section 9.3 | Regenerated report from JSON results file |
| 8 | Task 4 first run crashed at step 22 | Section 11.1 | Re-ran after applying encoding fix |
| 9 | Agent always clicking Project menu instead of Window | Sections 9-10 | Screenshot downscaling coordinate mismatch (1920→770px) |

---

## 14. Windows vs macOS Differences

| Aspect | macOS (original) | Windows (this session) |
|--------|-----------------|----------------------|
| Docker backend | Docker Desktop (QEMU for linux/amd64 on ARM) | Docker Desktop (native linux/amd64 on x86_64) |
| QEMU emulation | Yes (slow) | **No** (native speed) |
| SWT dialogs | **Failed to render** | **Rendered successfully** (Ctrl+N New Wizard) |
| Keyboard shortcuts | **Failed** (Ctrl+N, Ctrl+S etc.) | **Worked** (Ctrl+N, Alt+F4) |
| Package manager | brew (yt-dlp, ffmpeg) | pip (yt-dlp), winget (ffmpeg pre-installed) |
| conda multiline | Works | **Broken** — use direct python.exe path |
| Python default encoding | UTF-8 | **cp1252** — needs explicit UTF-8 |
| Docker build time | ~5 min | ~2 min (faster network + native arch) |
| IDE responsiveness | Slow (QEMU) | **Fast (native)** |
| Tasks run | 1 (Task 1 only) | **All 4 tasks** |
| Total screenshots | 30 | **120** |
| Usability issues found | ~3 (rest QEMU artifacts) | **12 genuine IDE issues** |

**Key insight:** Windows x86_64 eliminates QEMU artifacts. All agent struggles on Windows are caused by genuine IDE usability issues.

---

## 15. Results Summary

### Phase 1: Passive Analysis (Video + Screenshots)

| Test | Model | Input | Status | Output |
|------|-------|-------|--------|--------|
| Video blind | Gemini 2.5 Flash | task_demo.mkv | Success | `td_blind.md` — ~6 issues |
| Screenshot blind | GPT-4o | 6 frames | Success | `gpt4o_blind_6frames.md` |
| Screenshot blind | Gemini 2.5 Flash | 6 frames | Success | `gemini_ss_blind_6frames.md` |
| Screenshot blind | Claude Sonnet 4 | 6 frames | Success | `claude_blind_6frames.md` |

### Phase 2: Interactive Assessment (Agent) — All 4 Tasks

| Task | Steps | Completed? | Issues Found | Key Blocker |
|------|-------|------------|-------------|-------------|
| Task 1: Orientation | 30/30 | No | 5 | Welcome tab close button unreachable |
| Task 2: Hierarchy | 30/30 | No | 3 | Window menu unreachable (coordinate mismatch) |
| Task 3: Library | 30/30 | No | 3 | Window menu unreachable (same) |
| Task 4: Editing | 30/30 | Partial | 4 | New Wizard opened but tree unexpandable |
| **Total** | **120** | | **12 unique** | |

### Consolidated Usability Issues (Agent, Windows)

| # | Issue | Severity | Found in Tasks |
|---|-------|----------|-------|
| 1 | Welcome tab X intercepted by zoom toolbar | Critical | T1, T2, T3, T4 |
| 2 | Welcome content persists after tab closes | Major | T1 |
| 3 | Updates dialog X triggers Help window | Major | T1 |
| 4 | Tutorial links → broken Help pages | Minor | T1 |
| 5 | Tab header inconsistently visible | Major | T1 |
| 6 | Menu items tightly spaced | Minor | T2, T3 |
| 7 | No keyboard shortcut for System Explorer | Major | T2 |
| 8 | Type Library not discoverable without Window menu | Major | T3 |
| 9 | File > New submenu click vs hover inconsistency | Minor | T4 |
| 10 | New Wizard expand arrows too small | Minor | T4 |
| 11 | "General" auto-selected in New Wizard | Minor | T4 |
| 12 | No guided project creation from Welcome | Major | T4 |

### All Systems Verified
- Python 3.11 conda environment: **OK**
- API keys (Gemini, OpenAI, Anthropic): **All working**
- Video downloads: **OK** (3 videos, 78 MB total)
- Frame extraction: **OK** (66 frames)
- Docker container with 4diac IDE: **OK** (native x86_64, no QEMU)
- VNC/noVNC access: **OK** (http://localhost:6080/vnc.html)
- Claude Computer Use agent: **OK** (all 4 tasks, 120 steps, 120 screenshots)
- Full experiment documentation: **OK** (EXPERIMENTS.md updated)

---

## 16. How to Replicate (Quick Start)

Copy-paste these commands in order on a Windows x86_64 machine with conda, Docker, and ffmpeg pre-installed.

```bash
# === STEP 1: Clone repo ===
git clone https://github.com/qtakmalay/4diac.git
cd 4diac

# === STEP 2: Create environment ===
conda create -n 4diac python=3.11 -y
conda run -n 4diac pip install google-genai openai anthropic python-dotenv Pillow yt-dlp

# === STEP 3: Verify imports ===
conda run -n 4diac python -c "from google import genai; import openai; import anthropic; from dotenv import load_dotenv; from PIL import Image; import yt_dlp; print('All OK')"

# === STEP 4: Create API keys file ===
cat > exploration/.env << 'EOF'
GOOGLE_API_KEY=<your-google-api-key>
OPENAI_API_KEY=<your-openai-api-key>
ANTHROPIC_API_KEY=<your-anthropic-api-key>
EOF

# === STEP 5: Download videos ===
mkdir -p videos
conda run -n 4diac yt-dlp -o "videos/task_demo.%(ext)s" "https://youtu.be/xishphcgYmc"
conda run -n 4diac yt-dlp -o "videos/intro_v1.%(ext)s" "https://youtu.be/K9iItQBC-ac"
conda run -n 4diac yt-dlp -o "videos/intro_v2.%(ext)s" "https://youtu.be/by02Xu2yrPE"

# === STEP 6: Run Phase 1 — Video assessment ===
cd exploration
conda run -n 4diac python gemini_video_assess.py td blind

# === STEP 7: Extract frames ===
mkdir -p frames/td
ffmpeg -i ../videos/task_demo.mkv -vf "fps=1/10" -q:v 2 frames/td/frame_%04d.jpg

# === STEP 8: Run Phase 1 — Screenshot assessment ===
conda run -n 4diac python assess_screenshots.py blind all 6frames
cd ..

# === STEP 9: Start Docker Desktop (if not running) ===
"/c/Program Files/Docker/Docker/Docker Desktop.exe" &
# Wait until: docker info >/dev/null 2>&1

# === STEP 10: Build and start container ===
cd agent_interaction
docker compose up --build -d

# === STEP 11: Install interaction tools ===
docker exec agent_interaction-4diac-ide-1 bash -c "apt-get update -qq && apt-get install -y -qq xdotool scrot"

# === STEP 12: Wait for IDE to fully load (10 seconds) ===
sleep 10

# === STEP 13: Verify IDE screenshot ===
docker exec agent_interaction-4diac-ide-1 bash -c "DISPLAY=:1 scrot /tmp/screen.png"
docker cp agent_interaction-4diac-ide-1:/tmp/screen.png outputs/pre_task_screen.png

# === STEP 14: Run all 4 agent tasks ===
cd ..
C:/Users/you/anaconda3/envs/4diac/python.exe agent_interaction/claude_computer_use.py task1_orientation
C:/Users/you/anaconda3/envs/4diac/python.exe agent_interaction/claude_computer_use.py task2_hierarchy
C:/Users/you/anaconda3/envs/4diac/python.exe agent_interaction/claude_computer_use.py task3_library
C:/Users/you/anaconda3/envs/4diac/python.exe agent_interaction/claude_computer_use.py task4_editing

# === STEP 15: Stop container ===
cd agent_interaction
docker compose down
```

**NOTE on Windows:** Use `C:/Users/<user>/anaconda3/envs/4diac/python.exe` instead of `conda run -n 4diac python` for the agent scripts, due to Windows conda multiline bug.

**NOTE on encoding:** The `claude_computer_use.py` script must have the UTF-8 fix applied (see Section 7) before running on Windows.

---

## File Inventory (After All Experiments)

```
4diac/
├── SESSION_LOG_WINDOWS.md                  # THIS FILE
├── README.md
├── FULL_SESSION_LOG.md                     # Original macOS session
├── progress.md
├── .gitignore
│
├── videos/                                 # Downloaded (not in git)
│   ├── task_demo.mkv                       # 30 MB
│   ├── intro_v1.mkv                        # 17 MB
│   └── intro_v2.webm                       # 31 MB
│
├── exploration/
│   ├── .env                                # API keys (not in git)
│   ├── prompts.py
│   ├── gemini_video_assess.py
│   ├── assess_screenshots.py
│   ├── frames/
│   │   └── td/                             # 66 extracted frames
│   │       ├── frame_0001.jpg
│   │       └── ... (66 files)
│   └── outputs/
│       ├── gemini_video/
│       │   ├── td_blind.md                 # Gemini video assessment
│       │   └── td_all_results.json
│       └── screenshots/
│           ├── gpt4o_blind_6frames.md      # GPT-4o assessment
│           ├── gemini_ss_blind_6frames.md  # Gemini screenshot assessment
│           ├── claude_blind_6frames.md     # Claude assessment
│           └── all_blind_6frames.json      # Combined JSON
│
└── agent_interaction/
    ├── EXPERIMENTS.md                      # Updated with Windows results
    ├── RESEARCH_UI_AGENTS.md
    ├── Dockerfile
    ├── docker-compose.yml
    ├── start.sh
    ├── tasks.py
    ├── claude_computer_use.py              # Fixed for Windows UTF-8
    └── outputs/
        ├── pre_task_screen.png             # IDE state before experiments
        ├── task1_orientation_report.md     # Task 1 report
        ├── task1_orientation_results.json  # Task 1 JSON
        ├── task1_orientation_step01.png    # Task 1 step 1
        ├── ... (30 screenshots)
        ├── task1_orientation_step30.png    # Task 1 step 30
        ├── task2_hierarchy_report.md       # Task 2 report
        ├── task2_hierarchy_results.json    # Task 2 JSON
        ├── task2_hierarchy_step01-30.png   # Task 2 (30 screenshots)
        ├── task3_library_report.md         # Task 3 report
        ├── task3_library_results.json      # Task 3 JSON
        ├── task3_library_step01-30.png     # Task 3 (30 screenshots)
        ├── task4_editing_report.md         # Task 4 report
        ├── task4_editing_results.json      # Task 4 JSON
        └── task4_editing_step01-30.png     # Task 4 (30 screenshots)
```

**Total output:** 4 reports + 4 JSONs + 120 step screenshots + 5 assessment reports + 2 combined JSONs

---

---

## 17. Phase 3A: New Version Videos — Setup

### 17.1 New Videos Added

Two new videos were recorded on 2026-03-19 showing a **newer version** of 4diac IDE. These were manually placed in the `videos/` directory.

```bash
ls -la videos/
# 2026-03-19 21-25-12.mkv   38,862,792 bytes  (Video A)
# 2026-03-19 21-39-08.mkv   18,687,809 bytes  (Video B)
# intro_v1.mkv               17,489,496 bytes  (old version)
# intro_v2.webm              32,241,602 bytes  (old version)
# task_demo.mkv              30,779,261 bytes  (old version)
```

### 17.2 Video Metadata Inspection

```bash
ffprobe -v quiet -print_format json -show_format -show_streams "videos/2026-03-19 21-25-12.mkv" 2>&1 | grep -E '"duration"|"width"|"height"|"codec_name"'
# codec_name: h264, width: 1920, height: 1080, codec_name: aac, duration: 704.767000
```

**Video A:** `2026-03-19 21-25-12.mkv`
- Duration: **704 seconds (~11 min 45 sec)**
- Resolution: 1920x1080
- Codec: H.264 video, AAC audio
- Content: Project creation, FB type creation, palette usage, connecting FBs

```bash
ffprobe -v quiet -print_format json -show_format -show_streams "videos/2026-03-19 21-39-08.mkv" 2>&1 | grep -E '"duration"|"width"|"height"|"codec_name"'
# codec_name: h264, width: 1920, height: 1080, codec_name: aac, duration: 320.600000
```

**Video B:** `2026-03-19 21-39-08.mkv`
- Duration: **320 seconds (~5 min 21 sec)**
- Resolution: 1920x1080
- Codec: H.264 video, AAC audio
- Content: FB insertion methods, ECC editor discovery, data/event pin connections

### 17.3 Script Modification — Add New Videos to gemini_video_assess.py

```bash
# Added two entries to VIDEO_FILES dict in exploration/gemini_video_assess.py:
```

```python
# Before:
VIDEO_FILES = {
    "td": VIDEOS_DIR / "task_demo.mkv",
    "v1": VIDEOS_DIR / "intro_v1.mkv",
    "v2": VIDEOS_DIR / "intro_v2.webm",
}

# After:
VIDEO_FILES = {
    "td": VIDEOS_DIR / "task_demo.mkv",
    "v1": VIDEOS_DIR / "intro_v1.mkv",
    "v2": VIDEOS_DIR / "intro_v2.webm",
    "new_a": VIDEOS_DIR / "2026-03-19 21-25-12.mkv",  # New version video A (~12 min)
    "new_b": VIDEOS_DIR / "2026-03-19 21-39-08.mkv",  # New version video B (~5 min)
}
```

### 17.4 New Script Created — assess_new_videos.py

Created `exploration/assess_new_videos.py` for multi-model screenshot assessment of new videos.

```bash
# Script location: exploration/assess_new_videos.py
# Usage:
#   python assess_new_videos.py                    # Run all models on both videos
#   python assess_new_videos.py new_a              # Run all models on video A only
#   python assess_new_videos.py new_b gemini       # Run Gemini on video B only
```

Key design decisions:
- 6 evenly-spaced frames per video (same density as old experiments)
- Video A: frames at indices [1, 12, 24, 35, 47, 58] out of 70 total
- Video B: frames at indices [1, 7, 13, 19, 25, 31] out of 32 total
- Models: GPT-4o, Gemini 2.5 Flash, Claude Sonnet 4
- Prompt: Same `BLIND_PROMPT` from `prompts.py` (consistent with old experiments)
- Output: `exploration/outputs/new_version/` directory
- Encoding: UTF-8 on all file writes (Windows fix)

---

## 18. Phase 3B: Gemini Video Assessments (New Version)

### 18.1 Video A — Blind Assessment

```bash
cd exploration
conda run -n 4diac python gemini_video_assess.py new_a blind
```

**Console output:**
```
Starting Gemini video assessment
Video: new_a
Prompt level: blind
Model: gemini-2.5-flash

Uploading 2026-03-19 21-25-12.mkv...
Upload complete. Waiting for processing...
  State: PROCESSING  (6 cycles, ~30 seconds)
  State: ACTIVE
Video ready: https://generativelanguage.googleapis.com/v1beta/files/pmk6mg6zth6z

============================================================
Running assessment: blind
============================================================
Sending to gemini-2.5-flash...
Saved to: exploration/outputs/gemini_video/new_a_blind.md
DONE — 1 successful assessments
```

**Result:** `exploration/outputs/gemini_video/new_a_blind.md`
**Key findings:**
1. **Empty Palette on new project** (HIGH) — Palette is empty after project creation, user must find small "Add Standard Libraries" button
2. **Vague connection error feedback** (MEDIUM) — Red X without explanation
3. **Unclear multiple event input handling** (MEDIUM) — No visual indication of OR-ing
4. Strengths: clear FB internal structure editor, organized project view, standard IDE layout

### 18.2 Video A — CD-Guided Assessment

```bash
conda run -n 4diac python gemini_video_assess.py new_a cd_guided
```

**Console output:**
```
Uploading 2026-03-19 21-25-12.mkv...
  State: PROCESSING (7 cycles, ~35 seconds)
  State: ACTIVE
Sending to gemini-2.5-flash...
Saved to: exploration/outputs/gemini_video/new_a_cd_guided.md
DONE — 1 successful assessments
```

**Result:** `exploration/outputs/gemini_video/new_a_cd_guided.md`
**Cognitive Dimensions ratings:**

| Dimension | Rating | Key Observation |
|-----------|--------|-----------------|
| Viscosity | POOR | Connections break/require multiple attempts to snap |
| Visibility | MODERATE-POOR | Canvas constrained by panels + large white bar |
| Premature Commitment | MODERATE | Must name types before understanding their characteristics |
| Hidden Dependencies | MODERATE | Connection rules not clearly exposed |
| Role-Expressiveness | POOR | Terse names (E_SWITCH, E_CYCLE), generic rectangles |
| Error-Proneness | MODERATE-POOR | No guidance during connection, easy to make mistakes |
| Abstraction | GOOD | System Explorer + canvas = good abstraction levels |
| Secondary Notation | MODERATE | Comment boxes available, but no colors/highlighting |
| Closeness of Mapping | GOOD | Block diagram aligns well with IEC 61499 domain |
| Consistency | GOOD | Uniform visual elements and interaction patterns |
| Diffuseness | POOR | Too many panels, canvas area too small |
| Hard Mental Operations | MODERATE-POOR | Must memorize block functions + navigate large palette |
| Provisionality | MODERATE | Can experiment but connection instability deters it |
| Progressive Evaluation | MODERATE | Run/Debug buttons visible but not demonstrated |

**Top 5 critical issues:**
1. High Viscosity (connections)
2. High Diffuseness (workspace clutter)
3. Low Role-Expressiveness (cryptic names)
4. High Error-Proneness (no connection guidance)
5. Hard Mental Operations (cumulative cognitive load)

### 18.3 Video B — Blind Assessment

```bash
conda run -n 4diac python gemini_video_assess.py new_b blind
```

**Console output:**
```
Uploading 2026-03-19 21-39-08.mkv...
  State: PROCESSING (shorter video, faster processing)
  State: ACTIVE
Sending to gemini-2.5-flash...
Saved to: exploration/outputs/gemini_video/new_b_blind.md
DONE — 1 successful assessments
```

**Result:** `exploration/outputs/gemini_video/new_b_blind.md`
**Key findings:**
1. **ECC editor undiscoverable** (CRITICAL) — Hidden tab only appears when FB selected
2. **Documentation-UI discrepancy** (HIGH) — Help says "tab at bottom" but tab not visible
3. **Data pin connection difficulty** (HIGH) — Repeated fumbling, unclear interaction
4. **Inconsistent FB insertion methods** (MEDIUM) — Palette, right-click, global search all different
5. **Global search returns irrelevant results** — "FB" search shows "FB Debug" view

### 18.4 Video B — CD-Guided Assessment

```bash
conda run -n 4diac python gemini_video_assess.py new_b cd_guided
```

**Console output:**
```
Uploading 2026-03-19 21-39-08.mkv...
  State: PROCESSING (2 cycles)
  State: ACTIVE
Sending to gemini-2.5-flash...
Saved to: exploration/outputs/gemini_video/new_b_cd_guided.md
DONE — 1 successful assessments
```

**Result:** `exploration/outputs/gemini_video/new_b_cd_guided.md`
**Cognitive Dimensions ratings:**

| Dimension | Rating | Key Observation |
|-----------|--------|-----------------|
| Viscosity | POOR | Trial-and-error for basic actions, high repetition |
| Visibility | POOR | ECC tab hidden, search bar ambiguous |
| Premature Commitment | MODERATE | Must create project before learning interaction methods |
| Hidden Dependencies | POOR | ECC tab only appears when FB selected |
| Role-Expressiveness | POOR | User confused by right-click vs double-click vs search |
| Error-Proneness | POOR | Ambiguous cues invite mistakes (FB Debug vs Insert FB) |
| Abstraction | MODERATE | FB abstraction good, but accessing internals is broken |
| Secondary Notation | MODERATE | Comment box available |
| Closeness of Mapping | MODERATE | Visual mapping good, interaction mapping poor |
| Consistency | POOR | Multiple inconsistent ways to insert FBs |
| Diffuseness | MODERATE | Many panels but manageable |
| Hard Mental Operations | POOR | Constant confusion, reliance on external help |
| Provisionality | MODERATE | Can place FBs but can't experiment with behavior |
| Progressive Evaluation | POOR | No intuitive way to check FB state or correctness |

**Top 5 critical issues:**
1. Undiscoverable and inconsistent interaction models
2. Hidden critical information (ECC editor)
3. Poor role-expressiveness of UI elements
4. High cognitive load and error-proneness
5. Lack of progressive evaluation and feedback

---

## 19. Phase 3C: Frame Extraction (New Version)

### 19.1 Create Frame Directories

```bash
mkdir -p exploration/frames/new_a exploration/frames/new_b
```

### 19.2 Extract Frames — Video A

```bash
ffmpeg -i "videos/2026-03-19 21-25-12.mkv" -vf "fps=1/10" -q:v 2 exploration/frames/new_a/frame_%04d.jpg
```

**Output:**
```
Input #0, matroska,webm, from 'videos/2026-03-19 21-25-12.mkv':
  Duration: 00:11:44.77
  Stream #0:0: Video: h264, yuv420p, 1920x1080, 30 fps
frame=   70 fps=...
```

**Result:** **70 frames** extracted (1 every 10 seconds from 704-second video)

### 19.3 Extract Frames — Video B

```bash
ffmpeg -i "videos/2026-03-19 21-39-08.mkv" -vf "fps=1/10" -q:v 2 exploration/frames/new_b/frame_%04d.jpg
```

**Output:**
```
Input #0, matroska,webm, from 'videos/2026-03-19 21-39-08.mkv':
  Duration: 00:05:20.60
  Stream #0:0: Video: h264, yuv420p, 1920x1080, 30 fps
frame=   32 fps=...
```

**Result:** **32 frames** extracted (1 every 10 seconds from 320-second video)

### 19.4 Verify Frames

```bash
ls exploration/frames/new_a/ | wc -l
# 70

ls exploration/frames/new_b/ | wc -l
# 32

ls exploration/frames/new_a/ | head -3
# frame_0001.jpg
# frame_0002.jpg
# frame_0003.jpg
```

### 19.5 Frame Selection for 6-Frame Assessment

For consistent comparison with old experiments (6 frames per video), evenly-spaced frames were selected:

**Video A (70 frames → 6 selected):** indices [1, 12, 24, 35, 47, 58]
- frame_0001.jpg — Welcome screen / project creation
- frame_0012.jpg — ~2 min in
- frame_0024.jpg — ~4 min in
- frame_0035.jpg — ~5.8 min in
- frame_0047.jpg — ~7.8 min in
- frame_0058.jpg — ~9.7 min in

**Video B (32 frames → 6 selected):** indices [1, 7, 13, 19, 25, 31]
- frame_0001.jpg — Initial state
- frame_0007.jpg — ~1 min in
- frame_0013.jpg — ~2 min in
- frame_0019.jpg — ~3 min in
- frame_0025.jpg — ~4 min in
- frame_0031.jpg — ~5 min in

---

## 20. Phase 3D: Multi-Model Screenshot Assessments (New Version)

### 20.1 Video A — All 3 Models (Blind)

```bash
cd exploration
conda run -n 4diac python assess_new_videos.py new_a all blind
```

**Console output:**
```
============================================================
Video: Video A: 2026-03-19 21-25-12.mkv (~12 min, new 4diac version)
Frames: 6 (frames_6)
Prompt: blind
============================================================

--- gpt-4o ---
  Sending to GPT-4o...
  Saved: new_a_gpt4o_blind.md

--- gemini-2.5-flash ---
  Sending to Gemini 2.5-flash...
  Saved: new_a_gemini_blind.md

--- claude-sonnet-4 ---
  Sending to Claude Sonnet 4...
  Saved: new_a_claude_blind.md

Combined results: new_a_all_blind.json
```

**Results:**

| Model | File | Key Issues Found |
|-------|------|-----------------|
| GPT-4o | `new_a_gpt4o_blind.md` | Overwhelming options, lack of contextual help, steep learning curve |
| Gemini | `new_a_gemini_blind.md` | Intrusive white bar, truncated descriptions, no snap-to-grid, grayed-out Package field |
| Claude | `new_a_claude_blind.md` | Poor visual hierarchy/contrast, overwhelming density, limited discoverability, small canvas targets |

### 20.2 Video B — All 3 Models (Blind)

```bash
conda run -n 4diac python assess_new_videos.py new_b all blind
```

**Console output:**
```
============================================================
Video: Video B: 2026-03-19 21-39-08.mkv (~5 min, new 4diac version)
Frames: 6 (frames_6)
Prompt: blind
============================================================

--- gpt-4o ---
  Sending to GPT-4o...
  Saved: new_b_gpt4o_blind.md

--- gemini-2.5-flash ---
  Sending to Gemini 2.5-flash...
  Saved: new_b_gemini_blind.md

--- claude-sonnet-4 ---
  Sending to Claude Sonnet 4...
  Saved: new_b_claude_blind.md

Combined results: new_b_all_blind.json
```

**Results:**

| Model | File | Key Issues Found |
|-------|------|-----------------|
| GPT-4o | `new_b_gpt4o_blind.md` | Cluttered side panels, limited contextual info, connection errors for new users |
| Gemini | `new_b_gemini_blind.md` | Empty canvas no guidance, abstract port labels, no connection compatibility preview |
| Claude | `new_b_claude_blind.md` | Extensive palette overwhelming, "Properties not available" message, no required/optional indicators |

### 20.3 Assessment Timing

All screenshot assessments ran sequentially per video with 3-second delays between API calls (rate limiting):
- Video A: ~60 seconds total (GPT-4o ~15s, Gemini ~25s, Claude ~15s + delays)
- Video B: ~55 seconds total (same pattern)

No API errors or rate limit issues encountered.

---

## 21. Phase 3E: Old vs New Version Comparison

Full comparison documented in `exploration/outputs/NEW_VERSION_COMPARISON.md`.

### 21.1 Methodology

Compared findings from:
- **Old version:** 3 videos (task_demo, intro_v1, intro_v2), assessed with Gemini video (blind + CD-guided + task-specific), GPT-4o screenshots, Gemini screenshots, Claude screenshots
- **New version:** 2 videos (new_a, new_b), assessed with Gemini video (blind + CD-guided), GPT-4o screenshots, Gemini screenshots, Claude screenshots

Same prompts used across both versions for consistency.

### 21.2 Issues STILL PRESENT in New Version

| # | Issue | Old Evidence | New Evidence |
|---|-------|-------------|-------------|
| 1 | Visual density / too many panels | 3/5 models flagged | 5/5 assessments flag |
| 2 | Cryptic FB names (E_SWITCH etc.) | Noted in screenshots | Gemini-CD: Role-Expressiveness POOR |
| 3 | Vague/misleading error messages | "Param2 has input connection" bug | Red X with no explanation |
| 4 | No contextual tooltips/help | All models noted | All 3 screenshot models flag |
| 5 | Text truncation | Block names on canvas | Description column in New Type dialog |

### 21.3 Issues RESOLVED in New Version

| # | Issue | Old Version | New Version |
|---|-------|-------------|-------------|
| 1 | No dark theme | Light theme (no mention) | Dark theme — all models praise |
| 2 | Poor getting-started experience | Welcome screen present but basic | Clear welcome screen with creation options |
| 3 | No template descriptions | Type selection unclear | New Type dialog shows descriptions |

### 21.4 NEW Issues in New Version

| # | Issue | Severity | Found By |
|---|-------|----------|----------|
| 1 | ECC Editor undiscoverable (hidden tab) | CRITICAL | Gemini-video, Gemini-CD |
| 2 | Empty Palette on new project | HIGH | Gemini-video, Gemini-ss |
| 3 | Data pin connection difficulty | HIGH | Gemini-video, Gemini-CD |
| 4 | Inconsistent FB insertion methods | MEDIUM | Gemini-video, Gemini-CD |
| 5 | Global search returns irrelevant results | MEDIUM | Gemini-video |
| 6 | Mysterious white bar in editor | LOW | Gemini-ss |

### 21.5 Cognitive Dimensions Shift

| Dimension | Old Version | New Version A | New Version B |
|-----------|-------------|---------------|---------------|
| Viscosity | MODERATE | **POOR** | **POOR** |
| Visibility | GOOD | MOD-POOR | **POOR** |
| Hidden Dependencies | MODERATE | MODERATE | **POOR** |
| Role-Expressiveness | MODERATE | **POOR** | **POOR** |
| Error-Proneness | POOR | MOD-POOR | **POOR** |
| Consistency | MODERATE | GOOD | **POOR** |
| Hard Mental Operations | POOR | MOD-POOR | **POOR** |

**Summary:** 5 of 7 tracked dimensions worsened or stayed poor. Only Consistency improved in one context (Video A).

---

## 22. Phase 3 Results Summary

### Assessments Completed

| # | Assessment Type | Video | Model | Output File |
|---|----------------|-------|-------|-------------|
| 1 | Video Blind | A (12 min) | Gemini 2.5 Flash | `gemini_video/new_a_blind.md` |
| 2 | Video CD-guided | A (12 min) | Gemini 2.5 Flash | `gemini_video/new_a_cd_guided.md` |
| 3 | Video Blind | B (5 min) | Gemini 2.5 Flash | `gemini_video/new_b_blind.md` |
| 4 | Video CD-guided | B (5 min) | Gemini 2.5 Flash | `gemini_video/new_b_cd_guided.md` |
| 5 | Screenshot Blind | A (6 frames) | GPT-4o | `new_version/new_a_gpt4o_blind.md` |
| 6 | Screenshot Blind | A (6 frames) | Gemini 2.5 Flash | `new_version/new_a_gemini_blind.md` |
| 7 | Screenshot Blind | A (6 frames) | Claude Sonnet 4 | `new_version/new_a_claude_blind.md` |
| 8 | Screenshot Blind | B (6 frames) | GPT-4o | `new_version/new_b_gpt4o_blind.md` |
| 9 | Screenshot Blind | B (6 frames) | Gemini 2.5 Flash | `new_version/new_b_gemini_blind.md` |
| 10 | Screenshot Blind | B (6 frames) | Claude Sonnet 4 | `new_version/new_b_claude_blind.md` |

### Total Artifacts Generated

- 10 assessment markdown reports
- 4 combined JSON result files
- 102 extracted video frames (70 + 32)
- 1 comparison report (`NEW_VERSION_COMPARISON.md`)
- 1 reusable assessment script (`assess_new_videos.py`)

### Key Conclusions

1. **Persistent core issues dominate** — Visual density, cryptic naming, poor error messages, no tooltips remain across both versions
2. **New version introduces regressions** — Empty Palette, undiscoverable ECC editor, worsened connection interaction
3. **Some improvements confirmed** — Dark theme, better welcome screen, template descriptions
4. **Cognitive Dimensions generally worsened** — Viscosity, Visibility, Role-Expressiveness all degraded
5. **Strengths remain stable** — Visual programming paradigm, hierarchical navigation, type system still praised

---

## 23. Complete File Tree

```
4diac/
├── .env                                        # API keys (not committed)
├── .gitignore
├── README.md
├── SESSION_LOG_WINDOWS.md                      # THIS FILE — full replication log
│
├── videos/
│   ├── task_demo.mkv                           # Old version — full task demo
│   ├── intro_v1.mkv                            # Old version — intro v1
│   ├── intro_v2.webm                           # Old version — intro v2
│   ├── 2026-03-19 21-25-12.mkv                 # NEW version — Video A (12 min)
│   └── 2026-03-19 21-39-08.mkv                 # NEW version — Video B (5 min)
│
├── exploration/
│   ├── prompts.py                              # Assessment prompts (BLIND, CD_GUIDED, TASK_SPECIFIC)
│   ├── gemini_video_assess.py                  # Gemini video assessment script (updated with new_a, new_b)
│   ├── assess_screenshots.py                   # Old version screenshot assessment script
│   ├── assess_new_videos.py                    # NEW — Multi-model screenshot assessment for new videos
│   │
│   ├── frames/
│   │   ├── td/                                 # Old version frames (66 frames, 1 per 10s)
│   │   ├── td_3s/                              # Old version dense frames (1 per 3s)
│   │   ├── new_a/                              # NEW — Video A frames (70 frames, 1 per 10s)
│   │   │   ├── frame_0001.jpg
│   │   │   ├── ...
│   │   │   └── frame_0070.jpg
│   │   └── new_b/                              # NEW — Video B frames (32 frames, 1 per 10s)
│   │       ├── frame_0001.jpg
│   │       ├── ...
│   │       └── frame_0032.jpg
│   │
│   └── outputs/
│       ├── NEW_VERSION_COMPARISON.md           # NEW — Full old vs new comparison report
│       │
│       ├── gemini_video/
│       │   ├── td_blind.md                     # Old version — Gemini blind
│       │   ├── td_cd_guided.md                 # Old version — Gemini CD-guided
│       │   ├── td_task_task1_orientation.md     # Old version — task-specific
│       │   ├── td_task_task2_hierarchy.md
│       │   ├── td_task_task3_library.md
│       │   ├── td_task_task4_editing.md
│       │   ├── td_all_results.json
│       │   ├── v1_blind.md                     # Old version — intro v1
│       │   ├── v2_blind.md                     # Old version — intro v2
│       │   ├── new_a_blind.md                  # NEW — Video A blind
│       │   ├── new_a_cd_guided.md              # NEW — Video A CD-guided
│       │   ├── new_a_all_results.json          # NEW — Video A combined JSON
│       │   ├── new_b_blind.md                  # NEW — Video B blind
│       │   ├── new_b_cd_guided.md              # NEW — Video B CD-guided
│       │   └── new_b_all_results.json          # NEW — Video B combined JSON
│       │
│       ├── screenshots/                        # Old version screenshot assessments
│       │   ├── gpt4o_blind_6frames.md
│       │   ├── gemini_ss_blind_6frames.md
│       │   ├── claude_blind_6frames.md
│       │   └── all_blind_6frames.json
│       │
│       └── new_version/                        # NEW — New version screenshot assessments
│           ├── new_a_gpt4o_blind.md            # Video A — GPT-4o
│           ├── new_a_gemini_blind.md           # Video A — Gemini
│           ├── new_a_claude_blind.md           # Video A — Claude
│           ├── new_a_all_blind.json            # Video A — combined JSON
│           ├── new_b_gpt4o_blind.md            # Video B — GPT-4o
│           ├── new_b_gemini_blind.md           # Video B — Gemini
│           ├── new_b_claude_blind.md           # Video B — Claude
│           └── new_b_all_blind.json            # Video B — combined JSON
│
└── agent_interaction/
    ├── EXPERIMENTS.md                          # Agent interaction experiments
    ├── RESEARCH_UI_AGENTS.md
    ├── Dockerfile
    ├── docker-compose.yml
    ├── start.sh
    ├── tasks.py
    ├── claude_computer_use.py                  # Fixed for Windows UTF-8
    └── outputs/
        ├── pre_task_screen.png
        ├── task1_orientation_report.md
        ├── task1_orientation_results.json
        ├── task1_orientation_step01-30.png     # 30 screenshots
        ├── task2_hierarchy_report.md
        ├── task2_hierarchy_results.json
        ├── task2_hierarchy_step01-30.png       # 30 screenshots
        ├── task3_library_report.md
        ├── task3_library_results.json
        ├── task3_library_step01-30.png         # 30 screenshots
        ├── task4_editing_report.md
        ├── task4_editing_results.json
        └── task4_editing_step01-30.png         # 30 screenshots
```

**Total output across all phases:**
- 15 assessment markdown reports
- 6 combined JSON result files
- 168 extracted video frames (66 + 70 + 32)
- 120 agent step screenshots
- 4 agent task reports + 4 agent JSON results
- 1 comparison report
- 2 reusable assessment scripts

---

*Phase 1-3 session completed: March 23, 2026*
*Phase 1-2 duration: ~45 minutes*
*Phase 3 (new version) duration: ~25 minutes*
*All commands tested and verified on Windows 11 Home x86_64*

---
---

## 24. Phase 4: Agent Re-Run with Fixes (April 16, 2026)

### 24.1 Changes Applied

Based on the March 23 meeting action items, three key changes were made:

**Change 1: Resolution lowered to 1024x768**

`agent_interaction/docker-compose.yml`:
```yaml
# Before:
RESOLUTION=1920x1080x24
# After:
RESOLUTION=1024x768x24
```

`agent_interaction/Dockerfile`:
```dockerfile
# Before:
Xvfb :1 -screen 0 1920x1080x24
# After:
Xvfb :1 -screen 0 1024x768x24
```

`agent_interaction/claude_computer_use.py`:
```python
# Before:
DISPLAY_WIDTH = 1920
DISPLAY_HEIGHT = 1080
# After:
DISPLAY_WIDTH = 1024
DISPLAY_HEIGHT = 768
```

**Change 2: Max steps made configurable (unlimited mode)**

Added `--max-steps=none` CLI flag with hard cap of 300:
```bash
# 30 steps (default):
python claude_computer_use.py task1_orientation

# Unlimited:
python claude_computer_use.py task1_orientation --max-steps=none
```

**Change 3: Script improvements**
- 3-digit step numbering (step001, step002, ...)
- Thinking log saved per run
- Termination reason tracked in output JSON

### 24.2 Docker Rebuild

```bash
cd agent_interaction
docker compose down
rmdir /s /q workspace\.metadata    # Clean workspace state
docker compose up --build -d
```

Verified Xvfb running at 1024x768:
```
root  7  Xvfb :1 -screen 0 1024x768x24
```

Installed xdotool + scrot (not in Dockerfile, must install after each rebuild):
```bash
docker exec agent_interaction-4diac-ide-1 bash -c "apt-get update -qq && apt-get install -y -qq xdotool scrot"
```

### 24.3 Run 1: Task 1, 30 Steps at 1024x768

```bash
C:/Users/you/anaconda3/envs/4diac/python.exe agent_interaction/claude_computer_use.py task1_orientation
```

**Timeline:**
- Steps 1-4: Dismissed Updates dialog + closed Welcome tab (**no coordinate issues!**)
- Steps 5-10: Explored empty workspace, checked Sys/Typ tabs
- Steps 11-14: Opened Import dialog, expanded General category
- Steps 15-18: Selected "Existing Projects into Workspace", clicked Browse
- Steps 19-24: GTK file chooser dialog rendered blank — typed paths, no response
- Steps 25-30: Cancelled file dialog, returned to Import wizard, tried typing path

**Key finding:** Resolution fix works — agent clicks correct targets. No more wrong-menu issues from March.

**Blocker:** GTK file chooser dialog renders blank inside Docker. Not an IDE issue — Docker/GTK rendering limitation.

**Output:** `outputs/2026-04-16_task1_30steps_1024x768/` (30 screenshots + report + JSON + thinking log)

### 24.4 Run 2: Task 1, UNLIMITED at 1024x768 (BREAKTHROUGH)

```bash
C:/Users/you/anaconda3/envs/4diac/python.exe agent_interaction/claude_computer_use.py task1_orientation --max-steps=none
```

**Full Timeline (121 steps):**

**Phase 1: Welcome Dismissal (Steps 1-4)**
Agent clicked Updates dialog close button, then Welcome tab X — both worked on first try. Resolution fix confirmed.

**Phase 2: Workspace Exploration (Steps 5-8)**
Explored empty workspace. Checked Sys tab ("There are no projects"), Typ tab (also empty). Noted truncated tab labels.

**Phase 3: Project Creation via New Wizard (Steps 9-34)**
- Opened File > New, navigated to Other... > 4diac IDE
- Tried "4diac IDE Example Project" — **example list empty** (Issue #3)
- Created regular "4diac IDE Project" named "MotorControlSystem"
- Project created successfully with System Explorer showing hierarchy

**Phase 4: Project Exploration (Steps 35-48)**
- Expanded project tree: MotorControlSystem > MotorControlSystemApp, System Configuration
- Noted items truncated ("MotorControlSyste...", "System Configurati...")
- Tried double-clicking application, breadcrumb navigation — no visible change
- Right-clicked application, selected "Open" — no change

**Phase 5: Palette & Type Creation (Steps 49-79)**
- Expanded Standard Libraries in Palette — found 12 categories
- Searched "motor" in palette — no results, no "No results" feedback
- Tried right-clicking Type Library — **no context menu** (Issue #7)
- Used File > New > Type to create "MotorControl" Basic FB
- Type created successfully, visible in editor with ECC/Interface tabs

**Phase 6: Cross-View Navigation (Steps 80-95)**
- Switched between Sys and Typ tabs
- Discovered Type Library in Sys view doesn't show new type (Issue #9)
- Found type in Typ (Type Navigator) view — truncated name
- Navigated back to system editor, saw MotorControl in Palette

**Phase 7: Adding FB to Application (Steps 96-121)**
- Clicked "MotorControlSystemApp" in breadcrumb — **no view change** (Issue #5/11)
- Attempted drag-and-drop from Palette to canvas — **failed silently** (Issue #12)
- Right-clicked in empty canvas — **no context menu** (Issue #13)
- System canvas completely empty despite application existing (Issue #14)
- Checked Edit menu — no "Insert Function Block" option (Issue #15)
- **Step 121: API credits exhausted — terminated**

**Usability Issues Found (15 total):**

| # | Issue | Severity | Step | Category |
|---|-------|----------|------|----------|
| 1 | Tab labels "Sys"/"Typ" truncated, unclear | Minor | 5 | Labeling |
| 2 | "4diac IDE Project" vs "IEC 61499 System" confusing | Minor | 12 | Menu |
| 3 | Example project list empty | Major | 22 | Onboarding |
| 4 | Tree items truncated in narrow panels | Minor | 38 | Layout |
| 5 | Breadcrumb navigation doesn't change view | **Critical** | 43 | Navigation |
| 6 | No "No results" feedback for palette search | Major | 52 | Feedback |
| 7 | No right-click context menu on Type Library | Major | 60 | Discoverability |
| 8 | Tab abbreviations non-standard | Minor | 63 | Labeling |
| 9 | System Explorer doesn't refresh for new types | Major | 86 | Refresh |
| 10 | Type names truncated in Type Navigator | Minor | 91 | Layout |
| 11 | No visual distinction between system/app level | **Critical** | 96 | Navigation |
| 12 | Palette drag-drop to canvas fails silently | Major | 98 | Interaction |
| 13 | No right-click context menu on empty canvas | **Critical** | 109 | Interaction |
| 14 | Canvas empty despite application existing | Major | 112 | Visual |
| 15 | Edit menu missing "Insert Function Block" | Major | 116 | Menu |

### 24.5 Comparison: March vs April Agent Runs

| Aspect | March 23 (1920x1080) | April 16 (1024x768) |
|--------|---------------------|---------------------|
| Resolution | 1920x1080 | **1024x768** |
| Max steps | 30 fixed | **Unlimited (121 before credits ran out)** |
| Coordinate accuracy | Poor (wrong menu clicks) | **Good (correct targets)** |
| Welcome dismissal | 15-20 steps wasted | **4 steps** |
| Deepest progress | Welcome screen + menus | **Created project + FB type + explored palette** |
| Issues found | 12 (surface-level) | **15 (workflow-level)** |
| Issues depth | Mostly Welcome/menu problems | **Navigation, palette, type system, canvas** |

### 24.6 Output Files

```
outputs/
├── 2026-03-23_all-tasks_30steps_1920x1080/    # March experiments (renamed)
├── 2026-04-16_task1_30steps_1024x768/
│   ├── screen_check.png
│   ├── task1_orientation_report.md
│   ├── task1_orientation_results.json
│   ├── task1_orientation_step01-30.png         # 30 screenshots
│   └── thinking_log_claude_sonnet_4-6.txt
├── 2026-04-16_task1_121steps_1024x768/
│   ├── task1_orientation_report.md
│   ├── task1_orientation_results.json
│   ├── task1_orientation_step001-120.png       # 120 screenshots
│   └── thinking_log_claude-sonnet-4-6.txt
└── logs/
    └── 16-4-26.txt                            # Full terminal session log
```

---

## 25. Updated Total Output

**Total across all phases (Phases 1-4):**
- 15 assessment markdown reports
- 6 combined JSON result files
- 168 extracted video frames
- **271 agent step screenshots** (30 macOS + 120 March Windows + 30+120 April Windows)
- **7 agent task reports + 7 agent JSON results** (1 macOS + 4 March + 2 April)
- 2 thinking logs (April runs)
- 1 comparison report
- 2 reusable assessment scripts
- 1 terminal session log

---

*Phase 4 session: April 16, 2026*
*Duration: ~2 hours (Docker setup + 2 agent runs)*
*Agent credits exhausted after 121-step run*
